<svg xmlns="http://www.w3.org/2000/svg" viewBox="-178.6 -608.9 2956.2 2956.2">
<rect x="-178.6" y="-608.9" width="2956.2" height="2956.2" rx="473.0" fill="#e11469"/>
<path d="M2275.00 332.10 C2270.30 332.60 2258.40 333.60 2248.50 334.50 C2212.90 337.50 2205.50 338.20 2204.80 338.60 C2204.40 338.90 2197.60 339.50 2189.80 340.00 C2181.90 340.50 2171.00 341.40 2165.50 341.90 C2160.00 342.50 2145.80 343.70 2134.00 344.50 C2122.20 345.40 2106.00 346.70 2098.00 347.50 C2081.10 349.20 2060.50 351.20 2029.00 354.00 C2016.60 355.10 2000.40 356.70 1993.00 357.50 C1985.60 358.30 1977.00 359.00 1974.00 359.00 C1965.30 359.00 1947.40 360.50 1893.00 366.00 C1887.20 366.50 1875.80 367.50 1867.50 368.00 C1859.30 368.50 1849.80 369.40 1846.50 369.90 C1843.20 370.40 1835.30 371.10 1829.00 371.50 C1814.90 372.20 1800.20 373.50 1776.00 376.00 C1753.60 378.30 1736.50 379.80 1724.50 380.50 C1719.60 380.80 1709.90 381.70 1703.00 382.50 C1696.10 383.30 1680.60 384.70 1668.50 385.50 C1648.50 387.00 1621.70 389.20 1592.50 392.00 C1586.50 392.50 1577.90 393.20 1573.50 393.40 C1569.10 393.70 1561.70 394.30 1557.00 394.90 C1544.70 396.40 1528.60 397.90 1512.00 399.00 C1504.00 399.60 1493.00 400.70 1487.50 401.50 C1482.00 402.20 1468.10 403.40 1456.50 404.00 C1445.00 404.60 1430.60 405.80 1424.50 406.50 C1418.50 407.30 1409.00 408.20 1403.50 408.50 C1389.60 409.30 1367.90 412.00 1365.60 413.20 C1363.90 414.10 1363.80 415.10 1364.40 425.40 C1366.30 460.10 1366.40 461.90 1364.60 462.60 C1362.30 463.50 1357.70 461.60 1350.20 456.70 C1339.20 449.40 1327.40 443.90 1309.00 437.30 C1294.40 432.10 1283.10 429.40 1266.50 427.40 C1249.80 425.30 1216.10 424.50 1204.70 425.90 C1199.60 426.50 1190.10 427.50 1183.50 428.00 C1176.90 428.50 1166.80 429.30 1161.00 429.90 C1155.20 430.40 1140.80 431.60 1129.00 432.50 C1117.20 433.40 1103.50 434.60 1098.50 435.10 C1093.60 435.70 1083.30 436.60 1075.60 437.10 C1068.00 437.60 1061.50 438.20 1061.00 438.50 C1060.60 438.70 1054.00 439.40 1046.40 440.00 C1038.70 440.50 1025.80 441.60 1017.50 442.50 C986.60 445.50 969.00 447.00 952.00 448.10 C942.40 448.60 928.70 449.80 921.50 450.60 C914.40 451.40 903.60 452.50 897.50 453.00 C875.90 454.60 858.30 456.10 845.00 457.50 C837.60 458.30 827.90 459.20 823.50 459.50 C819.10 459.80 808.80 460.70 800.50 461.60 C792.30 462.40 774.30 464.00 760.50 465.00 C729.40 467.50 715.60 468.70 701.50 470.00 C687.60 471.40 661.10 473.80 645.50 475.00 C638.90 475.50 627.40 476.60 620.00 477.40 C612.60 478.20 598.60 479.40 589.00 480.00 C579.40 480.60 566.80 481.60 561.00 482.10 C531.60 484.90 518.90 486.10 502.00 487.50 C491.80 488.30 482.10 489.20 480.50 489.50 C477.30 490.00 464.00 491.10 438.00 493.00 C422.00 494.10 397.50 496.40 377.40 498.60 C370.20 499.40 361.90 500.00 358.90 500.00 C349.80 500.00 320.50 504.90 298.80 510.10 C285.60 513.30 277.80 516.00 267.50 521.00 C264.20 522.50 260.40 524.20 259.10 524.50 C257.80 524.90 254.80 526.40 252.40 527.90 C250.00 529.30 243.90 533.10 238.80 536.20 C220.90 547.10 202.80 563.30 188.80 581.00 C179.60 592.70 173.00 602.00 173.00 603.40 C173.00 604.00 171.80 606.30 170.40 608.40 C161.10 622.10 146.50 660.80 144.10 678.50 C143.60 682.30 142.30 690.20 141.40 696.00 C140.00 704.30 139.70 712.40 139.70 735.00 C139.80 751.00 140.30 765.50 140.80 768.00 C141.40 770.50 142.60 778.20 143.40 785.20 C145.00 798.10 152.00 827.30 154.80 832.70 C155.30 833.70 156.00 836.20 156.40 838.20 C156.80 840.30 158.90 845.90 161.10 850.70 C163.30 855.60 166.50 862.40 168.20 866.00 C172.20 874.70 178.90 886.20 187.40 899.00 C194.50 909.60 198.60 914.80 211.80 929.20 C218.90 937.00 220.10 939.20 217.90 940.60 C215.90 941.80 202.60 943.80 191.40 944.50 C185.40 944.90 176.20 945.80 171.00 946.60 C165.80 947.40 161.20 948.00 160.80 948.00 C160.40 948.00 159.40 948.70 158.60 949.60 C157.30 950.90 157.10 952.70 157.50 959.30 C158.20 968.40 161.40 1005.00 163.00 1020.50 C163.50 1026.00 164.20 1034.30 164.60 1039.00 C165.40 1051.00 168.90 1083.60 170.00 1089.00 C175.50 1117.10 179.10 1128.90 190.20 1155.40 C194.60 1166.00 205.50 1184.90 212.50 1194.00 C214.80 1197.00 218.50 1202.00 220.80 1205.00 C225.90 1211.80 243.70 1229.50 255.20 1239.20 C259.90 1243.20 267.80 1249.90 272.60 1254.00 C286.20 1265.60 297.00 1274.60 302.90 1279.30 C308.60 1283.70 325.10 1297.50 336.00 1307.00 C369.00 1335.50 394.40 1348.50 433.70 1357.00 C448.70 1360.20 488.10 1362.10 508.00 1360.70 C536.60 1358.50 556.90 1356.80 568.50 1355.50 C575.70 1354.70 591.20 1353.40 603.00 1352.50 C614.80 1351.70 628.30 1350.50 633.00 1350.00 C651.00 1347.90 690.20 1344.40 705.50 1343.50 C711.00 1343.20 724.50 1342.00 735.50 1340.90 C746.50 1339.80 761.60 1338.50 769.00 1338.00 C776.40 1337.50 787.00 1336.60 792.50 1336.10 C798.00 1335.50 812.60 1334.10 825.00 1333.00 C837.40 1331.80 854.30 1330.30 862.50 1329.50 C870.80 1328.70 885.20 1327.60 894.50 1327.00 C903.90 1326.30 917.80 1325.20 925.50 1324.40 C933.20 1323.60 945.10 1322.50 952.00 1322.00 C974.40 1320.30 999.40 1318.00 1001.90 1317.50 C1003.20 1317.10 1013.40 1316.20 1024.40 1315.50 C1062.10 1312.80 1071.50 1312.00 1079.00 1311.00 C1086.80 1310.00 1100.00 1308.80 1123.00 1307.00 C1130.40 1306.50 1142.80 1305.30 1150.50 1304.50 C1158.20 1303.70 1173.70 1302.30 1185.00 1301.40 C1196.30 1300.60 1215.00 1299.00 1226.50 1298.00 C1238.10 1296.90 1253.40 1295.60 1260.50 1295.00 C1267.70 1294.40 1280.50 1293.30 1289.00 1292.50 C1310.20 1290.50 1335.90 1288.20 1345.00 1287.50 C1349.10 1287.20 1358.60 1286.30 1366.00 1285.50 C1373.40 1284.70 1385.80 1283.60 1393.50 1283.10 C1421.90 1281.00 1434.70 1279.90 1443.50 1279.00 C1448.50 1278.50 1460.60 1277.40 1470.50 1276.50 C1492.90 1274.60 1517.60 1272.40 1538.50 1270.40 C1561.80 1268.30 1586.20 1266.20 1596.50 1265.50 C1601.50 1265.10 1609.10 1264.50 1613.50 1264.00 C1617.90 1263.50 1625.10 1262.80 1629.50 1262.50 C1633.90 1262.20 1644.70 1261.30 1653.50 1260.50 C1662.30 1259.60 1676.50 1258.30 1685.00 1257.50 C1693.50 1256.70 1705.20 1255.80 1711.00 1255.50 C1716.80 1255.20 1726.00 1254.50 1731.50 1254.00 C1737.00 1253.50 1749.40 1252.40 1759.00 1251.50 C1789.50 1248.80 1809.10 1247.00 1824.00 1245.50 C1832.00 1244.70 1843.30 1244.00 1849.10 1244.00 C1860.80 1244.00 1855.70 1242.60 1904.00 1259.00 C1909.20 1260.70 1918.20 1263.70 1924.00 1265.50 C1929.80 1267.30 1942.40 1271.50 1952.00 1274.80 C1961.60 1278.10 1975.40 1282.70 1982.50 1285.00 C1989.70 1287.30 1999.60 1290.70 2004.50 1292.50 C2009.50 1294.30 2017.10 1296.90 2021.50 1298.20 C2025.90 1299.60 2037.40 1303.50 2047.00 1306.90 C2056.60 1310.30 2067.40 1314.00 2071.00 1315.00 C2074.60 1316.10 2090.80 1321.50 2107.00 1327.00 C2123.20 1332.50 2171.80 1348.80 2215.00 1363.10 C2258.20 1377.50 2300.70 1391.90 2309.50 1395.00 C2332.70 1403.30 2347.90 1407.60 2349.80 1406.30 C2353.40 1404.10 2353.40 1402.00 2349.50 1358.50 C2347.80 1340.30 2346.40 1322.60 2345.00 1303.00 C2344.40 1295.60 2343.60 1286.10 2343.10 1282.00 C2342.50 1277.90 2341.90 1271.10 2341.50 1267.00 C2341.20 1262.90 2340.30 1252.10 2339.50 1243.00 C2338.60 1233.90 2337.50 1222.10 2337.00 1216.60 C2336.10 1205.80 2336.70 1202.80 2340.10 1200.90 C2341.40 1200.30 2348.50 1199.40 2355.90 1198.90 C2363.40 1198.40 2370.60 1197.80 2372.00 1197.50 C2373.40 1197.20 2383.50 1196.30 2394.50 1195.50 C2452.50 1191.10 2457.40 1190.30 2458.70 1185.10 C2459.40 1182.40 2458.20 1164.70 2455.60 1138.00 C2454.80 1129.50 2453.60 1115.10 2453.00 1106.00 C2452.30 1096.90 2451.20 1083.20 2450.40 1075.50 C2449.00 1061.90 2448.00 1049.80 2446.00 1024.00 C2445.40 1017.10 2444.30 1005.90 2443.50 999.00 C2442.70 992.10 2441.60 978.80 2441.00 969.50 C2440.40 960.10 2439.20 946.40 2438.40 939.00 C2437.60 931.60 2436.50 920.30 2436.00 914.00 C2435.50 907.70 2434.40 894.60 2433.60 885.00 C2432.80 875.40 2431.40 859.40 2430.60 849.50 C2429.70 839.60 2428.80 829.70 2428.50 827.50 C2428.20 825.30 2427.30 814.70 2426.50 804.00 C2424.30 774.60 2423.10 760.50 2421.90 750.00 C2421.40 744.80 2420.50 734.40 2420.00 727.00 C2419.50 719.60 2418.80 712.40 2418.50 711.00 C2418.00 708.60 2415.90 684.90 2414.00 660.50 C2413.50 653.90 2412.60 645.30 2412.00 641.50 C2411.50 637.60 2410.60 626.60 2410.00 617.00 C2408.80 596.90 2407.40 580.00 2406.00 568.50 C2405.50 564.10 2404.10 549.50 2403.00 536.00 C2401.90 522.50 2400.30 505.00 2399.50 497.00 C2397.80 481.10 2396.50 465.70 2395.00 445.00 C2393.50 425.50 2392.20 411.60 2391.50 409.90 C2390.80 408.00 2373.60 392.70 2358.10 380.20 C2351.60 374.80 2339.20 364.60 2330.70 357.50 C2307.80 338.30 2302.00 333.60 2299.60 332.30 C2297.20 330.90 2287.70 330.90 2275.00 332.10 Z M2233.40 408.60 C2234.30 409.40 2235.00 410.40 2235.00 410.80 C2235.00 411.20 2235.40 414.20 2236.00 417.50 C2236.50 420.80 2237.40 430.20 2238.00 438.50 C2238.50 446.70 2239.50 458.40 2240.00 464.50 C2242.60 492.80 2246.60 537.90 2249.00 568.00 C2250.20 581.50 2251.50 596.50 2252.10 601.50 C2252.70 606.40 2253.50 615.20 2254.00 621.00 C2254.50 626.80 2256.10 644.30 2257.50 660.00 C2258.90 675.70 2260.70 697.00 2261.50 707.50 C2262.90 725.90 2264.50 744.50 2267.50 775.50 C2268.30 783.70 2269.20 794.50 2269.50 799.50 C2269.80 804.40 2270.60 812.30 2271.10 817.00 C2271.70 821.70 2272.50 831.30 2273.00 838.50 C2275.40 871.90 2276.10 880.40 2277.50 893.00 C2278.30 900.40 2279.70 915.50 2280.50 926.50 C2281.40 937.50 2282.70 952.60 2283.50 960.00 C2285.20 975.30 2287.80 1004.90 2289.00 1022.00 C2290.20 1039.50 2290.70 1039.00 2268.50 1040.90 C2261.40 1041.50 2245.20 1042.90 2232.50 1044.00 C2219.90 1045.10 2203.90 1046.40 2197.00 1047.00 C2181.00 1048.30 2165.30 1049.70 2152.00 1051.00 C2112.50 1054.90 2110.20 1054.90 2107.10 1051.70 C2105.30 1049.70 2097.50 1032.30 2092.50 1019.00 C2091.80 1017.10 2089.20 1010.80 2086.60 1005.10 C2084.10 999.40 2081.40 992.40 2080.60 989.60 C2079.20 984.50 2073.40 969.40 2072.10 967.50 C2071.70 966.90 2070.50 964.00 2069.30 961.00 C2065.60 951.40 2059.50 936.10 2050.50 914.50 C2045.70 902.90 2040.80 890.80 2039.50 887.50 C2038.20 884.20 2035.60 877.80 2033.60 873.30 C2031.60 868.90 2025.60 854.20 2020.10 840.80 C2014.70 827.50 2009.30 814.20 2008.20 811.50 C2004.50 802.60 1997.80 785.70 1994.40 777.00 C1992.70 772.30 1990.00 765.80 1988.50 762.50 C1987.00 759.20 1984.00 752.00 1981.80 746.50 C1978.30 737.50 1972.20 723.50 1963.90 704.90 C1962.30 701.30 1961.00 697.90 1961.00 697.30 C1961.00 696.70 1960.30 695.70 1959.40 694.90 C1958.10 693.90 1957.70 693.90 1956.90 695.10 C1955.70 697.00 1955.80 707.00 1957.00 716.20 C1957.50 720.20 1958.40 730.20 1959.00 738.50 C1961.20 767.80 1962.90 789.60 1963.90 800.00 C1964.50 805.80 1965.50 816.60 1966.00 824.00 C1966.60 831.40 1967.90 846.50 1969.00 857.50 C1970.00 868.50 1971.10 880.60 1971.40 884.50 C1971.70 888.30 1972.60 898.00 1973.40 906.00 C1974.90 921.00 1977.30 948.80 1979.10 971.50 C1979.60 978.60 1980.50 989.00 1981.10 994.50 C1981.60 1000.00 1982.70 1012.40 1983.60 1022.00 C1986.70 1059.80 1986.70 1063.00 1983.10 1065.00 C1982.00 1065.50 1973.20 1066.70 1963.30 1067.50 C1953.50 1068.40 1944.80 1069.30 1944.00 1069.50 C1943.10 1069.80 1936.40 1070.40 1929.00 1070.90 C1914.00 1072.00 1898.60 1073.20 1871.30 1075.60 C1847.10 1077.70 1849.00 1079.00 1846.60 1058.40 C1845.70 1049.60 1844.40 1036.40 1843.90 1029.00 C1843.40 1021.60 1842.30 1008.10 1841.50 999.00 C1840.70 989.90 1839.60 977.30 1839.00 971.00 C1837.80 956.60 1835.40 930.40 1833.50 909.50 C1832.60 900.70 1831.50 887.60 1831.00 880.50 C1829.20 855.80 1827.90 841.50 1826.50 829.00 C1825.20 817.40 1824.50 808.40 1822.00 775.00 C1821.50 768.10 1820.60 758.20 1820.00 753.00 C1819.50 747.80 1818.60 739.00 1818.00 733.50 C1817.40 728.00 1816.30 714.90 1815.50 704.50 C1814.70 694.00 1813.30 677.80 1812.50 668.50 C1811.60 659.10 1810.50 646.10 1810.00 639.50 C1809.00 626.50 1807.70 612.00 1805.50 588.50 C1804.70 580.20 1803.50 567.00 1802.90 559.00 C1802.30 551.10 1801.60 544.20 1801.40 543.80 C1801.10 543.40 1800.00 530.80 1799.00 515.80 C1797.90 500.80 1796.30 482.30 1795.50 474.80 C1794.70 467.30 1794.00 458.10 1794.00 454.50 C1794.00 445.20 1795.00 444.40 1808.10 443.60 C1813.80 443.20 1822.10 442.40 1826.50 441.90 C1835.90 440.70 1860.90 438.50 1880.00 437.00 C1887.40 436.40 1896.60 435.50 1900.40 435.00 C1904.20 434.40 1914.10 433.50 1922.40 432.90 C1930.70 432.40 1945.40 431.30 1955.00 430.60 C1976.30 428.90 1976.40 428.90 1980.10 438.00 C1981.60 441.60 1985.10 450.10 1988.00 457.00 C1990.80 463.90 1994.00 471.70 1995.00 474.50 C1996.00 477.20 1998.70 483.80 2001.00 489.00 C2003.30 494.20 2006.30 501.20 2007.50 504.50 C2011.40 514.80 2017.90 531.00 2023.50 544.00 C2036.30 574.30 2053.60 616.80 2059.60 632.80 C2060.90 636.20 2062.90 640.80 2063.90 642.80 C2065.00 644.90 2068.00 652.20 2070.60 659.10 C2073.20 665.90 2075.90 672.40 2076.60 673.50 C2077.30 674.60 2078.80 678.80 2080.00 682.90 C2081.20 687.00 2084.90 696.90 2088.20 704.90 C2091.50 712.90 2095.20 722.20 2096.50 725.50 C2097.70 728.80 2100.40 735.30 2102.50 740.00 C2104.50 744.70 2107.40 751.90 2109.00 756.00 C2114.00 769.30 2123.90 789.20 2125.20 788.70 C2127.50 787.90 2126.30 756.20 2122.50 720.00 C2121.70 712.60 2120.20 695.00 2119.00 681.00 C2117.90 667.00 2116.30 649.40 2115.50 642.00 C2114.70 634.60 2113.40 619.50 2112.50 608.50 C2108.70 560.00 2107.80 549.60 2106.50 535.50 C2105.70 527.20 2104.60 514.90 2104.00 508.00 C2103.40 501.10 2102.10 486.30 2101.00 475.00 C2098.00 444.60 2096.80 423.20 2098.00 420.90 C2098.60 419.90 2100.10 418.80 2101.30 418.60 C2110.70 416.60 2130.40 414.60 2167.00 412.00 C2174.40 411.40 2185.90 410.30 2192.50 409.50 C2199.10 408.70 2207.70 407.90 2211.50 407.70 C2230.00 406.90 2231.80 407.00 2233.40 408.60 Z M1727.40 453.20 C1729.30 456.30 1729.80 459.90 1731.50 479.50 C1732.90 496.20 1733.40 501.50 1736.50 533.50 C1738.60 554.60 1738.50 559.50 1736.10 561.90 C1734.00 564.00 1717.00 567.00 1706.80 567.00 C1703.30 567.00 1696.70 567.40 1692.00 568.00 C1687.30 568.50 1677.20 569.40 1669.50 570.00 C1661.80 570.50 1646.10 571.90 1634.50 573.10 C1623.00 574.20 1608.50 575.50 1602.30 575.90 C1595.60 576.30 1590.50 577.10 1589.60 577.90 C1587.70 579.50 1587.60 584.50 1589.00 600.40 C1589.50 606.50 1590.60 620.50 1591.50 631.50 C1592.40 642.50 1593.50 655.30 1594.00 660.00 C1594.50 664.70 1595.40 675.00 1596.10 683.00 C1597.60 701.90 1597.60 702.00 1608.30 702.00 C1612.80 702.00 1619.20 701.60 1622.50 701.00 C1631.50 699.60 1667.90 696.30 1689.70 694.90 C1704.30 693.90 1709.20 693.90 1710.30 694.80 C1711.30 695.60 1712.20 701.40 1713.30 713.70 C1714.30 723.50 1715.70 738.50 1716.60 747.00 C1718.30 764.10 1720.90 795.70 1721.00 800.70 C1721.00 805.80 1718.40 806.80 1702.50 808.00 C1694.80 808.50 1680.90 809.70 1671.50 810.50 C1650.10 812.40 1623.10 814.90 1616.30 815.60 C1613.50 815.90 1610.60 816.80 1609.90 817.70 C1607.80 820.10 1608.50 831.80 1613.10 875.70 C1614.10 885.80 1615.00 896.20 1615.00 898.90 C1615.00 901.60 1615.60 909.60 1616.40 916.70 C1617.20 923.70 1618.60 939.80 1619.50 952.50 C1620.40 965.10 1621.60 976.70 1622.20 978.30 C1622.80 979.80 1624.30 981.30 1625.60 981.60 C1628.40 982.30 1655.80 980.30 1695.00 976.50 C1733.10 972.90 1768.00 970.60 1771.00 971.50 C1774.20 972.50 1775.00 975.20 1776.00 987.80 C1777.50 1008.20 1780.00 1034.40 1780.50 1035.90 C1780.80 1036.60 1781.50 1044.90 1782.00 1054.10 C1782.50 1063.40 1783.30 1072.80 1783.60 1074.90 C1784.10 1078.20 1783.80 1079.20 1781.80 1081.30 C1779.20 1083.90 1773.60 1084.70 1744.50 1087.00 C1737.40 1087.60 1729.90 1088.20 1728.00 1088.50 C1726.10 1088.80 1718.00 1089.50 1710.00 1090.00 C1689.30 1091.30 1671.20 1092.90 1623.50 1097.50 C1606.40 1099.10 1590.50 1100.50 1564.00 1102.50 C1529.10 1105.20 1518.50 1106.10 1512.50 1107.00 C1503.20 1108.50 1497.50 1108.20 1495.00 1106.20 C1493.00 1104.60 1492.70 1102.80 1491.40 1087.50 C1490.70 1078.10 1489.60 1066.40 1489.10 1061.50 C1488.50 1056.50 1487.80 1047.80 1487.50 1042.00 C1486.80 1029.20 1484.10 998.10 1483.50 996.00 C1483.20 995.20 1482.40 985.70 1481.50 975.00 C1480.70 964.30 1479.50 951.90 1479.00 947.50 C1478.50 943.10 1477.60 933.40 1477.00 926.00 C1475.90 911.40 1474.60 897.60 1473.00 881.00 C1472.50 875.20 1471.30 861.30 1470.50 850.00 C1469.60 838.70 1468.50 824.80 1468.00 819.00 C1466.70 805.30 1465.20 788.40 1463.50 768.00 C1462.00 750.00 1459.60 725.00 1458.00 710.00 C1457.40 704.80 1456.50 693.30 1456.00 684.50 C1454.80 665.10 1453.20 646.70 1448.50 599.00 C1447.70 590.50 1446.10 572.50 1445.00 559.00 C1443.80 545.50 1442.30 528.20 1441.50 520.50 C1440.70 512.80 1439.80 500.10 1439.40 492.30 C1438.80 478.20 1438.80 478.20 1441.10 476.70 C1442.40 475.90 1446.90 475.00 1451.00 474.70 C1464.40 473.70 1502.30 470.10 1510.00 469.00 C1514.10 468.50 1520.90 468.00 1525.00 468.00 C1529.10 468.00 1535.20 467.50 1538.50 467.00 C1541.80 466.40 1554.00 465.30 1565.50 464.50 C1586.00 463.00 1631.00 458.90 1648.00 457.00 C1652.70 456.40 1659.50 456.00 1663.20 456.00 C1666.90 456.00 1675.20 455.30 1681.70 454.40 C1693.30 452.90 1710.40 451.40 1720.70 451.10 C1725.20 451.00 1726.20 451.30 1727.40 453.20 Z M1265.90 498.00 C1270.00 499.10 1274.40 500.00 1275.60 500.00 C1276.90 500.00 1279.40 500.60 1281.20 501.40 C1283.00 502.20 1288.90 504.50 1294.30 506.60 C1316.60 514.90 1337.80 531.40 1351.50 551.00 C1362.40 566.70 1365.50 573.90 1373.40 602.00 C1375.80 610.60 1379.90 645.20 1382.00 675.00 C1383.30 693.40 1386.50 730.20 1389.00 757.00 C1391.10 779.50 1390.00 794.70 1384.50 817.50 C1381.20 831.10 1376.70 842.10 1369.00 855.50 C1364.90 862.60 1352.70 876.60 1343.20 884.90 C1338.80 888.90 1334.80 893.00 1334.50 894.10 C1333.50 897.20 1335.40 902.30 1348.10 929.80 C1350.30 934.40 1352.00 938.40 1352.00 938.70 C1352.00 938.90 1352.80 941.00 1353.90 943.30 C1354.90 945.60 1357.40 951.30 1359.40 956.00 C1361.40 960.70 1363.90 966.30 1365.00 968.50 C1366.00 970.70 1368.70 976.50 1370.80 981.50 C1373.00 986.40 1376.60 994.50 1378.80 999.50 C1381.00 1004.40 1383.10 1009.60 1383.50 1011.00 C1383.90 1012.40 1385.60 1016.20 1387.30 1019.50 C1388.90 1022.80 1392.20 1030.00 1394.50 1035.50 C1398.60 1045.10 1407.60 1065.40 1416.20 1084.50 C1426.90 1108.10 1427.90 1112.30 1423.80 1113.90 C1419.90 1115.50 1392.50 1118.20 1353.00 1121.00 C1342.70 1121.70 1333.10 1122.60 1302.00 1125.60 C1276.90 1127.90 1277.60 1128.10 1273.50 1118.00 C1272.00 1114.40 1269.30 1107.90 1267.50 1103.50 C1265.70 1099.10 1260.30 1085.60 1255.50 1073.50 C1250.70 1061.40 1243.70 1044.00 1239.80 1034.80 C1236.00 1025.60 1232.30 1016.10 1231.50 1013.80 C1230.30 1009.90 1226.70 1001.20 1220.50 987.00 C1219.10 984.00 1216.50 977.20 1214.50 972.00 C1212.60 966.80 1210.50 961.70 1209.90 960.70 C1209.40 959.70 1207.60 955.20 1206.00 950.70 C1199.70 932.90 1195.50 926.00 1191.00 926.00 C1187.70 926.00 1182.20 928.10 1181.60 929.60 C1181.30 930.40 1181.40 935.30 1182.00 940.30 C1182.50 945.40 1183.40 955.10 1183.90 962.00 C1187.10 1003.50 1190.20 1039.10 1193.60 1073.50 C1194.40 1082.30 1195.60 1095.80 1196.10 1103.50 C1196.60 1111.20 1197.50 1119.90 1198.00 1122.80 C1199.10 1128.70 1198.10 1132.30 1195.20 1133.90 C1194.10 1134.50 1187.20 1135.40 1179.90 1136.00 C1172.50 1136.60 1159.80 1137.70 1151.50 1138.50 C1108.70 1142.70 1083.00 1145.00 1070.80 1145.70 C1063.10 1146.20 1062.10 1146.00 1061.20 1144.40 C1059.90 1141.80 1058.30 1131.70 1057.10 1117.50 C1053.10 1073.00 1050.40 1040.50 1048.50 1016.50 C1047.60 1006.00 1046.30 991.00 1045.50 983.00 C1043.00 957.80 1041.00 934.20 1039.50 912.50 C1038.60 900.90 1037.30 885.40 1036.50 878.00 C1035.70 870.60 1034.10 854.40 1033.00 842.00 C1031.90 829.60 1030.60 814.30 1030.00 808.00 C1029.40 801.70 1028.50 790.60 1028.00 783.50 C1027.40 776.30 1026.80 769.40 1026.50 768.00 C1026.20 766.60 1025.10 752.90 1024.00 737.50 C1022.90 722.10 1021.30 703.40 1020.50 696.00 C1018.70 679.80 1017.20 662.10 1016.00 644.50 C1015.50 637.30 1014.50 625.60 1013.60 618.50 C1011.60 601.20 1008.30 562.70 1005.50 524.50 C1004.80 514.10 1005.30 513.70 1020.50 512.40 C1027.70 511.80 1038.20 510.80 1044.00 510.20 C1054.60 509.10 1070.30 507.70 1093.00 506.00 C1099.90 505.50 1115.00 504.10 1126.50 503.00 C1138.10 501.80 1154.50 500.50 1163.00 500.00 C1171.50 499.50 1181.00 498.60 1184.00 497.90 C1194.00 496.00 1211.10 495.10 1235.00 495.50 C1254.70 495.90 1259.70 496.20 1265.90 498.00 Z M964.80 523.20 C965.10 527.50 956.80 572.70 954.00 582.00 C953.40 583.90 950.70 597.00 947.90 611.00 C945.10 625.00 942.20 638.70 941.40 641.50 C940.70 644.20 938.90 652.80 937.40 660.50 C936.00 668.20 933.30 681.50 931.40 690.00 C929.60 698.50 927.10 709.80 925.90 715.00 C922.20 731.90 921.10 737.30 918.50 750.50 C915.40 766.00 911.30 785.40 907.00 804.50 C905.30 812.20 903.50 821.00 903.00 824.00 C902.50 827.00 901.10 833.50 900.00 838.50 C898.90 843.40 897.50 850.00 896.90 853.00 C892.70 874.80 891.60 879.80 890.90 881.70 C890.40 882.90 889.40 888.10 888.50 893.20 C887.60 898.30 886.30 905.40 885.40 909.00 C884.60 912.60 882.80 920.90 881.30 927.50 C879.90 934.10 877.90 943.30 876.80 948.00 C873.80 961.50 874.40 976.50 880.40 1043.80 C881.30 1052.80 882.40 1065.80 883.00 1072.80 C883.60 1079.80 884.70 1091.80 885.50 1099.50 C887.10 1114.80 888.90 1139.10 889.30 1151.30 C889.50 1157.80 889.20 1159.40 887.80 1160.40 C886.20 1161.60 875.10 1162.90 848.50 1165.00 C832.20 1166.30 816.30 1167.70 799.00 1169.50 C791.00 1170.40 778.00 1171.50 770.00 1172.00 C751.80 1173.10 752.10 1173.30 750.90 1159.60 C750.50 1154.40 749.70 1146.60 749.10 1142.30 C748.60 1138.00 747.90 1130.20 747.50 1125.00 C746.90 1116.10 746.10 1107.60 742.50 1072.00 C741.70 1064.00 740.60 1050.30 740.00 1041.50 C737.00 995.50 734.60 975.80 730.90 965.80 C729.20 961.20 726.30 953.40 724.50 948.50 C722.70 943.50 720.00 936.80 718.50 933.50 C714.40 924.50 688.20 859.40 681.90 842.50 C680.20 838.10 677.70 832.10 676.30 829.10 C674.90 826.10 673.00 821.40 672.00 818.60 C670.30 813.60 653.80 771.90 650.10 763.00 C645.00 750.90 637.50 732.10 632.50 719.00 C629.40 711.10 626.50 704.10 626.00 703.50 C625.60 703.00 622.70 696.00 619.70 688.00 C616.70 680.00 612.30 669.00 610.00 663.50 C606.00 654.10 602.00 643.70 593.00 620.50 C590.90 615.00 586.60 604.40 583.50 597.00 C580.40 589.60 576.40 579.40 574.50 574.40 C572.70 569.30 570.40 563.80 569.50 562.00 C567.30 557.70 567.90 553.90 571.00 552.30 C572.40 551.60 576.70 551.00 580.50 551.00 C584.40 551.00 590.70 550.50 594.50 549.90 C598.40 549.40 608.90 548.30 618.00 547.50 C637.90 545.90 653.10 544.50 679.00 542.00 C700.20 540.00 707.50 540.40 709.40 543.60 C710.60 545.80 718.00 567.70 731.00 608.00 C736.10 623.70 742.20 642.10 744.60 649.00 C747.00 655.90 750.50 666.70 752.50 673.00 C754.40 679.30 756.70 686.50 757.60 689.00 C758.40 691.50 759.70 695.50 760.50 698.00 C761.30 700.50 762.60 704.50 763.50 707.00 C764.40 709.50 766.20 715.30 767.50 720.00 C770.00 728.90 782.10 763.40 784.00 766.90 C786.50 771.70 788.20 768.80 790.40 756.00 C791.30 750.80 792.60 743.80 793.20 740.50 C794.50 733.00 796.10 721.90 799.90 692.50 C801.60 679.80 803.70 665.20 804.50 660.00 C805.40 654.80 806.50 647.10 807.10 643.00 C807.70 638.90 809.70 625.10 811.50 612.50 C813.40 599.80 815.40 585.00 816.00 579.50 C816.60 574.00 817.70 566.10 818.50 562.00 C819.30 557.90 820.20 551.60 820.60 548.00 C821.40 538.50 823.70 531.20 826.10 530.00 C827.20 529.40 833.60 528.40 840.30 527.90 C847.00 527.40 856.80 526.60 862.00 526.00 C870.80 525.10 890.60 523.30 920.50 520.90 C942.90 519.00 952.50 518.40 958.50 518.50 L964.50 518.50 L964.80 523.20 Z M445.00 568.50 C469.90 571.60 495.80 584.10 516.80 603.30 C530.30 615.60 541.30 630.50 550.40 648.70 C556.50 660.80 557.60 663.70 561.90 678.00 C567.70 697.00 570.50 714.50 572.10 740.10 C573.40 759.60 573.20 760.40 568.20 761.40 C566.70 761.80 553.40 762.90 538.50 764.00 C523.70 765.10 507.20 766.40 502.00 767.00 C488.10 768.50 469.50 770.00 453.00 771.10 C434.90 772.20 435.50 772.70 433.50 757.40 C432.70 751.40 432.00 744.50 432.00 742.00 C432.00 733.10 428.80 715.50 425.90 708.20 C419.10 691.10 410.50 683.90 395.20 682.60 C374.90 680.80 356.70 690.00 352.60 704.10 C349.30 715.60 348.00 723.00 348.00 730.90 C348.00 741.80 352.20 762.10 356.00 769.70 C360.60 779.10 373.80 793.10 384.10 799.50 C391.30 804.10 411.80 814.00 421.00 817.30 C438.50 823.70 479.10 842.30 493.50 850.50 C510.80 860.30 541.50 884.40 546.90 892.40 C547.70 893.60 550.20 896.70 552.50 899.50 C560.40 909.10 573.70 931.70 576.40 940.20 C577.20 942.50 579.00 947.30 580.40 950.70 C585.00 961.70 591.00 982.50 592.50 993.20 C593.40 998.90 594.80 1007.10 595.70 1011.50 C597.00 1017.80 597.40 1025.00 597.30 1045.00 C597.30 1069.70 597.20 1071.00 594.10 1085.80 C592.40 1094.20 590.30 1102.80 589.40 1104.80 C588.50 1106.80 586.50 1112.10 584.90 1116.50 C582.20 1123.70 573.90 1139.60 568.40 1147.70 C565.80 1151.50 556.50 1162.50 549.60 1169.80 C539.20 1180.80 517.20 1193.70 498.00 1200.00 C470.40 1209.10 409.00 1214.90 370.50 1212.10 C351.90 1210.70 349.00 1210.10 336.70 1205.50 C319.60 1199.00 306.80 1191.40 292.70 1179.40 C284.70 1172.50 272.20 1158.50 266.20 1149.50 C262.50 1144.00 254.80 1129.40 251.50 1121.50 C248.00 1113.00 240.30 1086.00 238.50 1076.00 C235.60 1059.40 232.20 1019.20 233.30 1014.80 C234.20 1011.30 236.90 1010.60 258.50 1008.50 C267.90 1007.70 282.00 1006.30 290.00 1005.50 C298.00 1004.70 308.80 1003.80 314.00 1003.50 C319.20 1003.20 326.30 1002.50 329.60 1001.90 C341.00 1000.20 366.10 999.10 368.60 1000.20 C371.70 1001.60 371.90 1002.20 373.00 1019.00 C375.10 1051.30 378.30 1068.10 384.60 1080.10 C388.40 1087.30 391.60 1090.10 401.00 1094.40 C411.40 1099.10 429.50 1097.70 441.50 1091.20 C447.40 1088.00 453.30 1080.10 455.80 1072.00 C458.20 1064.30 458.20 1032.70 455.70 1022.50 C453.80 1014.40 448.10 1001.60 443.80 995.60 C437.90 987.50 427.00 977.00 418.80 971.70 C402.50 961.30 400.30 960.00 382.00 951.50 C371.80 946.70 362.40 942.20 361.00 941.40 C359.60 940.70 355.00 938.70 350.70 936.90 C334.80 930.50 301.60 912.50 291.00 904.60 C288.00 902.30 283.50 899.10 281.00 897.50 C271.50 891.10 254.70 873.60 245.50 860.30 C232.00 840.80 219.50 812.00 215.60 791.30 C214.80 787.00 213.70 782.20 213.10 780.70 C211.30 776.10 209.80 758.60 209.30 737.70 C208.40 701.60 212.90 679.60 226.80 651.00 C233.80 636.50 234.90 634.80 245.30 622.40 C257.70 607.40 274.10 594.50 289.80 587.30 C300.50 582.40 314.60 577.40 320.00 576.60 C322.50 576.20 328.60 575.00 333.50 574.00 C362.00 567.90 418.30 565.10 445.00 568.50 Z M1194.00 611.60 C1192.60 611.80 1184.40 612.40 1175.60 612.90 C1163.80 613.70 1159.20 614.30 1157.20 615.60 L1154.70 617.20 L1155.40 632.90 C1155.70 641.50 1156.40 651.60 1156.90 655.50 C1157.40 659.30 1158.60 673.10 1159.40 686.00 C1160.30 698.90 1161.50 713.30 1162.00 718.00 C1162.60 722.70 1163.80 733.90 1164.60 743.00 C1169.70 800.30 1170.30 805.70 1171.90 808.80 C1172.90 810.80 1173.90 811.00 1180.80 811.00 C1185.00 811.00 1193.50 810.30 1199.50 809.50 C1205.60 808.70 1212.80 808.00 1215.50 808.00 C1221.50 808.00 1234.90 804.70 1240.80 801.90 C1246.40 799.20 1247.70 796.90 1249.50 787.40 C1250.80 781.00 1250.90 777.30 1250.00 767.50 C1248.80 753.50 1246.30 723.50 1244.90 707.00 C1244.40 700.70 1243.50 689.40 1243.00 682.00 C1242.50 674.60 1241.80 667.30 1241.40 665.80 C1241.10 664.40 1240.30 656.50 1239.60 648.30 C1238.50 635.50 1237.80 632.30 1234.90 625.10 C1232.80 620.00 1230.50 615.90 1229.00 614.80 C1225.10 612.00 1205.30 610.20 1194.00 611.60 Z" fill-rule="evenodd" fill="#F4EEE4"/>
</svg>
